<mxfile host="app.diagrams.net" modified="2023-07-01T07:43:50.913Z" agent="Mozilla/5.0 (Macintosh; Intel Mac OS X 10_15_7) AppleWebKit/605.1.15 (KHTML, like Gecko) Version/16.3 Safari/605.1.15" version="21.5.2" etag="Cd4434i8wYlm7_K78x74" type="github">
  <diagram name="Страница 1" id="Pp35IAfvwh2iv6I9qIiR">
    <mxGraphModel>
      <root>
        <mxCell id="0" />
        <mxCell id="1" parent="0" />
      </root>
    </mxGraphModel>
  </diagram>
</mxfile>
